<svg width="493" height="1102" viewBox="0 0 493 1102" fill="none" xmlns="http://www.w3.org/2000/svg">
<path d="M206.516 0.499588L216.016 1.49959L224.516 5.49959L231.016 10.9996L241.516 27.9996L251.016 48.4996L263.516 84.9996L280.016 132.5L297.016 151L312.016 156.707H351.516L364.516 151L375.516 102.207C375.516 70.207 361.849 26.8737 355.016 9.207C355.016 4.007 363.682 4.04033 368.016 4.707C374.016 11.907 381.849 6.37366 385.016 2.707C390.216 -2.09301 397.849 2.04033 401.016 4.707C405.416 9.907 414.182 5.54033 418.016 2.707C425.216 -1.293 434.349 2.37367 438.016 4.707C440.816 6.707 436.516 12.5403 434.016 15.207C410.816 38.007 412.016 82.707 415.516 102.207C422.316 126.607 402.516 172.166 391.516 196L390.016 214.5L384.516 229L379.016 234.5L342.016 247L336.516 251L330.516 253.5C314.116 261.5 315.016 251 277.016 276.207C265.416 281.407 265.849 289.04 267.516 292.207C269.916 299.007 269.516 318.04 269.016 326.707C265.016 339.507 259.349 339.374 257.016 337.707C249.416 335.307 235.182 307.707 229.016 294.207C211.816 259.807 212.516 238.874 215.016 232.707C218.216 220.307 235.349 247.207 243.516 262.207C249.516 275.007 255.016 297.207 257.016 306.707C261.016 328.307 252.016 343.707 247.016 348.707C232.616 350.307 210.682 291.707 201.516 262.207C193.116 235.007 204.016 234.874 210.516 238.207C219.716 243.407 234.349 286.04 240.516 306.707C245.716 326.707 237.016 346.04 232.016 353.207L223.516 351.707L201.516 313.207L185.016 262.207L187.016 241.207H190.016L201.516 245.707L217.516 287.707L232.016 340.707L217.516 360.207L206.516 353.207L197.016 337.707L187.016 318.207L177.516 294.207L170.516 267.207L172.516 248.207H179.016L183.016 251.207L190.016 264.707L204.516 300.207L210.516 342.207L206.516 362.207L197.016 365.207L187.016 355.207L168.516 318.207L158.016 287.707L155.516 258.707L158.016 255.207H164.016L168.516 258.707L176.016 272.707L190.016 306.707L194.516 325.207L190.016 368.707L183.016 372.207L176.016 368.707L168.516 353.207L150.516 315.707L140.516 284.707V264.707L143.016 260.207L149.016 262.207L160.016 280.207L171.516 307.707L179.016 331.207L172.516 377.707L167.016 379.207L158.016 368.707L145.516 345.707L136.016 323.207L126.016 294.207L125.016 268.207L129.016 264.707L136.016 267.207L143.016 276.207L158.016 318.207L165.516 357.707L158.016 383.707L152.516 386.207L147.516 382.207L136.016 363.707L117.016 320.207L109.016 282.207L111.516 276.207L117.016 274.707L122.016 276.207L134.516 300.207L145.516 328.207L150.516 360.207L143.016 391.707L137.516 393.207L133.016 388.207L126.016 377.707L104.016 335.207L93.5156 292.207V286.207L96.5156 280.207H102.016L105.516 284.707L115.016 301.707L129.016 331.207L134.516 348.707V373.707L125.016 396.207H119.016L111.516 388.207L96.5156 357.707L85.0156 328.207L79.0156 307.707L77.5156 294.207L79.0156 287.707L85.0156 286.207L92.0156 297.707L109.016 331.207L116.016 346.707L120.516 375.707L111.516 402.707L104.016 404.707L96.5156 396.207L87.5156 379.207L74.0156 348.707L65.0156 320.207L62.5156 300.207L65.0156 294.207L69.5156 292.207L76.0156 300.207L89.0156 323.207L98.5156 345.707L104.016 365.207L102.016 372.207L92.0156 373.707L74.0156 357.707H65.0156L14.5156 383.707L0.515625 402.707L3.51562 434.707L6.01562 461.707L31.0156 537.207L87.0156 589.207L154.516 622.707L256.016 633.207L282.516 617.207L371.016 604.207L403.016 598.207L408.016 564.707L406.516 508.207L382.016 483.707H335.016H290.016L261.516 485.707L254.016 510.707V545.707L256.016 584.207L266.516 606.207L373.016 628.207L395.516 651.707V685.207L389.516 708.707L367.516 726.207L354.016 733.707L307.516 750.207L40.5156 841.207L25.5156 856.707V901.707L29.0156 971.207L32.5156 979.707L57.5156 989.707L492.016 1049.21V1101.21" stroke="black"/>
</svg>
